<?xml version="1.0" encoding="iso-8859-1"?>
<!-- Generator: Adobe Illustrator 19.0.0, SVG Export Plug-In . SVG Version: 6.00 Build 0)  -->
<svg xmlns="http://www.w3.org/2000/svg" xmlns:xlink="http://www.w3.org/1999/xlink" version="1.1" id="Layer_1" x="0px" y="0px" viewBox="0 0 512.002 512.002" style="enable-background:new 0 0 512.002 512.002;" xml:space="preserve" width="512px" height="512px">
<g>
	<g>
		<g>
			<path d="M193.734,443.487c-3.891-2.628-9.199-1.621-11.844,2.278c-6.374,9.412-16.947,15.027-28.288,15.027     c-18.825,0-34.133-15.309-34.133-34.133c0-11.341,5.615-21.914,15.027-28.28c3.9-2.654,4.924-7.953,2.278-11.861     c-2.637-3.891-7.945-4.907-11.844-2.278c-14.114,9.557-22.528,25.412-22.528,42.419c0,28.237,22.963,51.2,51.2,51.2     c17.007,0,32.87-8.422,42.419-22.528C198.658,451.431,197.634,446.124,193.734,443.487z" fill="#00b894"/>
			<path d="M341.336,17.059c-41.028,0-79.599,15.974-108.612,44.988l-84.471,84.471c-3.336,3.337-3.336,8.738,0,12.066     c3.337,3.337,8.738,3.337,12.066,0l84.471-84.471c25.788-25.788,60.083-39.987,96.546-39.987     c36.471,0,70.767,14.199,96.555,39.987c25.779,25.788,39.979,60.075,39.979,96.546c0,36.463-14.199,70.758-39.979,96.546     L329.269,375.818c-2.603,2.594-3.243,6.562-1.604,9.847c10.411,20.821,5.299,62.899-9.429,77.628l-28.1,28.1L20.602,221.859     l28.1-28.1c14.456-14.455,55.236-19.652,76.45-10.001l179.985,179.985c3.328,3.337,8.73,3.337,12.066,0     c3.328-3.336,3.328-8.738,0-12.066L136.186,170.659c-0.649-0.648-1.399-1.186-2.219-1.596     c-27.409-13.73-77.466-7.245-97.331,12.629L2.502,215.826c-3.336,3.337-3.336,8.73,0,12.066l281.6,281.6     c1.664,1.664,3.849,2.5,6.033,2.5s4.369-0.836,6.033-2.5l34.133-34.133c18.534-18.534,25.421-63.352,15.113-91.554     l104.533-104.533c29.013-29.013,44.988-67.584,44.988-108.612s-15.974-79.607-44.988-108.612     C420.943,33.034,382.372,17.059,341.336,17.059z" fill="#00b894"/>
			<path d="M502.001,9.994c-13.303-13.312-34.97-13.312-48.265,0l-11.264,11.264c-3.336,3.328-3.336,8.73,0,12.066     c3.328,3.328,8.73,3.328,12.066,0l11.264-11.264c6.647-6.647,17.485-6.647,24.132,0c3.226,3.226,5.001,7.509,5.001,12.075     c0,4.548-1.775,8.832-5.001,12.058L478.68,57.456c-3.337,3.337-3.337,8.738,0,12.075c1.664,1.664,3.849,2.492,6.033,2.492     c2.185,0,4.361-0.828,6.033-2.5l11.255-11.255c6.451-6.451,10.001-15.019,10.001-24.132     C512.002,25.012,508.452,16.436,502.001,9.994z" fill="#00b894"/>
			<path d="M301.963,93.979c1.195,0,2.415-0.256,3.584-0.794c22.332-10.351,48.742-10.428,71.142-0.213     c4.301,1.954,9.344,0.051,11.307-4.233c1.946-4.284,0.06-9.353-4.224-11.307c-26.931-12.262-58.59-12.177-85.41,0.265     c-4.275,1.988-6.135,7.066-4.147,11.341C295.657,92.144,298.737,93.979,301.963,93.979z" fill="#00b894"/>
		</g>
	</g>
</g>
<g>
</g>
<g>
</g>
<g>
</g>
<g>
</g>
<g>
</g>
<g>
</g>
<g>
</g>
<g>
</g>
<g>
</g>
<g>
</g>
<g>
</g>
<g>
</g>
<g>
</g>
<g>
</g>
<g>
</g>
</svg>
